<svg version="1.2" xmlns="http://www.w3.org/2000/svg" viewBox="0 0 977 1061" width="977" height="1061">
	<title>logoSmall</title>
	<style>
		.s0 { fill: #00693e } 
		.s1 { fill: #ffd200 } 
	</style>
	<g id="Layer">
		<path id="Layer" class="s0" d="m443.5 237.7c-9.3 0.5-26.9 2.5-28.8 3.2-1.5 0.6-0.8 1.4 4.2 4.5 27.9 17.2 59.7 45.8 92.6 83.1 20.1 22.8 20.8 23.5 23.9 23.5 1.5 0 14-4 27.9-8.9 13.8-5 37.6-13.3 52.7-18.6 30.7-10.7 49.3-17.4 49.8-18 0.6-0.6-25.6-17.7-37.8-24.7-43.8-25-87.5-39.3-133.4-43.7-9.9-1-38.2-1.2-51.1-0.4z"/>
		<path id="Layer" class="s0" d="m381.3 254.8c-3.4 2.1-12.6 29.7-17.1 51.2-5.6 26.7-14.2 90.8-14.2 106.4 0 5.1 0.2 5.7 1.8 5.1 0.9-0.4 29.2-10.3 62.7-22.1 33.6-11.8 68.2-24 77-27.1 8.8-3.1 16.4-5.9 16.8-6.3 2-1.7-56.3-58.3-80.7-78.2-10.9-8.9-32.4-23.7-40.3-27.7-4.8-2.4-4.4-2.3-6-1.3z"/>
		<path id="Layer" class="s0" d="m340.5 268.9c-31.2 14.7-72.1 52.7-106.5 98.6-23.8 31.8-41 64.1-47.5 89-2.1 8.3-3.4 19.5-2.1 19.5 0.2 0 12-4.1 26.2-9.1 14.3-5 45.3-15.8 68.9-24 23.7-8.3 43.6-15.6 44.4-16.4 1.1-1.1 1.6-6.6 2.2-23.2 2-53.1 8.6-97 19.4-128.2 3.6-10.7 3.8-10.4-5-6.2z"/>
		<path id="Layer" class="s1" d="m750 284.3c-9.1 4.5-18 9.3-19.7 10.5-1.7 1.2-3.4 2.2-3.7 2.2-0.4 0-5 3.2-10.4 7.2-6 4.4-21.4 18.6-40.4 37.2-16.9 16.6-39.5 38.4-50.3 48.6-10.8 10.2-34.8 33.4-53.3 51.7-28.9 28.5-34.2 33.2-37.4 33.8-3.9 0.7-13.9 0.2-27.3-1.5-20.1-2.5-26.9-3.1-39.2-3.6-11-0.5-13.8-0.3-16.7 1.1-4.4 2.1-11.6 9.8-11.6 12.4 0 3.6 6.2 9.2 21.2 19.2 8.1 5.5 15 9.9 15.3 9.9 0.4 0 2.5 1.3 4.8 2.8 2.3 1.5 5.6 3.4 7.2 4.2 1.7 0.8 4.8 2.6 7 4.1 2.2 1.4 4.8 2.9 5.8 3.2 2.9 1.1 3.2 3.8 0.8 8-1.4 2.4-2.1 4.7-1.7 6.2 0.7 2.8 7 8.5 9.4 8.5 2.5 0 2.9-0.3 63.6-45.5 15.4-11.6 30.8-22.9 34-25.2 6.1-4.3 9.2-4.7 8.2-0.9-0.3 1.1-1.3 5.2-2.2 9.1-0.8 3.8-2.4 10-3.5 13.6-3.6 12.1-1.8 18.9 4.9 18.9 3.1 0 5.6-2.3 11.9-11 2.2-3 7.1-9.8 11-15 7.3-10 39.3-57.6 39.3-58.5 0-0.3 2.3-3.9 5-8 2.8-4.1 5-7.7 5-8 0-1.3 10.6-16.4 15.2-21.5 5-5.6 21.1-23.4 37.3-41 5-5.4 14-15.3 20-22 6.1-6.7 15.1-16.5 20.1-21.8 12-12.9 15.6-18.3 16.2-24.4 0.4-4.5 0.2-5-3.6-8.8l-4-4h-10.8-10.9z"/>
		<path id="Layer" class="s0" d="m660.5 334c-2.7 1-25.7 9.1-51 17.9-52.9 18.6-59.5 21-59.5 22 0 0.8 5.2 9.5 16.7 28.1 7 11.2 9.5 14.5 11.1 14.5 1.3 0 8.2-5.6 18.3-15 34.9-32.2 72.4-67.6 72.7-68.5 0.5-1.5-2.7-1.1-8.3 1z"/>
		<path id="Layer" class="s0" d="m514.4 386c-5.9 1.6-35 11.7-109.4 38-9.6 3.4-25.5 8.9-35.4 12.3-12.2 4.2-18.3 6.8-19.2 8.2-2.7 4.2 2.8 47.1 9.6 74 4.5 18.1 6.3 22.5 8.7 22.5 1 0 6.8-1.8 12.8-3.9 6.1-2.2 24.5-8.7 40.9-14.5 16.5-5.9 30.1-10.8 30.3-10.9 0.1-0.2-2.8-2.6-6.5-5.3-9.8-7.1-14.1-11.3-16.3-15.5-3.7-7.4-2.4-11.5 6.7-20.9 8.1-8.4 13.9-11.2 23.3-11.2 8.6 0.1 34.3 2.7 49.9 5.2 15 2.4 16.6 2.4 21.9 0 6-2.7 26.3-23.6 26.3-27.1 0-3.9-26.3-48.1-30-50.4-3.3-2-7-2.1-13.6-0.5z"/>
		<path id="Layer" class="s0" d="m718.9 395.2c-5.6 6.2-11.8 13.6-13.9 16.3-3.7 5-8.4 13.4-7.8 14 0.8 0.8 43.8-15.1 44.3-16.3 0.5-1.5-9.5-23.5-11.3-24.6-0.6-0.4-5.5 4.3-11.3 10.6z"/>
		<path id="Layer" class="s0" d="m708.1 447.1c-20.1 7.1-37.8 14-39.5 15.3-1.7 1.3-4.7 5-6.6 8.2-1.9 3.3-10.3 17.1-18.8 30.7-14.4 23.2-15.8 25.1-20.9 28.3-4.8 3.2-5.4 3.8-4.9 6.2 0.5 2.1 4.7 27 9.2 53 0.4 2.6 0.9 3.3 2.2 3 0.9-0.3 31-10.7 66.7-23.2 46.6-16.3 65.5-23.4 66.9-24.9 1.7-2.1 1.8-3.8 1.3-26.2-0.4-19-1-27.2-3.1-39.6-2.8-17.7-8.1-40.6-9.7-42.6-0.6-0.7-2.3-1.3-3.8-1.2-1.4 0-19 5.9-39 13z"/>
		<path id="Layer" class="s0" d="m252.5 477.4c-37.9 13.3-70 24.8-71.2 25.4-3.8 2.1-4.4 4.7-5 21-0.7 18.3 0.7 36.9 4.3 55.9 3.2 17.8 5.2 23.7 8.1 24.1 1.3 0.2 27.4-8.5 58-19.3 85.8-30.2 91.6-32.3 93.6-34.4 1.9-1.9 1.9-2.2-2.7-20.7-5.3-22-8.9-43.3-10.7-62.7-1.1-12.9-1.3-13.7-3.3-13.6-1.2 0-33.1 11-71.1 24.3z"/>
		<path id="Layer" class="s0" d="m573.5 517.9c-6.6 4.8-22.5 16.5-35.3 25.9l-23.3 17.2h-5.4-5.4l-12.3 11.3c-6.8 6.2-22.9 20.5-35.8 31.6-35.4 30.7-37.7 32.8-38.4 35.7-0.5 1.9 0.3 4.7 2.9 10.3 4.4 9.2 6 11.1 9.5 11.1 2.2 0 114.3-39 158.1-55 8.8-3.2 11.2-4.9 12.1-8.6 1.3-5.2-2.3-33.4-7.8-60.4-1.6-8.2-6.2-27.2-6.7-27.6-0.1-0.2-5.6 3.7-12.2 8.5z"/>
		<path id="Layer" class="s0" d="m467.5 532c-4.4 1.5-26.2 9.1-48.4 16.9-22.2 7.8-41 14.6-41.8 15.3-0.9 0.7-1.3 2.2-0.9 3.7 0.8 4 18.1 39.5 20 41 2.5 2.1 4.3 1 29.4-18.2 12.5-9.6 30.9-23.5 40.9-31 10-7.5 18.9-14.7 19.7-15.9 0.9-1.2 1.6-4.1 1.6-6.4 0-3.4-0.5-4.7-2.6-6.3-3.6-2.8-8.1-2.6-17.9 0.9z"/>
		<path id="Layer" class="s1" d="m474.5 567.2c-2.1 1.8-6.7 5.3-10.1 7.8-3.4 2.5-15.2 11.2-26.2 19.5-11 8.2-24.7 18.4-30.3 22.6-11 8.1-46.5 31.9-47.4 31.9-0.4 0-2.5 1.3-4.8 2.8-2.3 1.5-5.5 3.4-7.2 4.2-1.6 0.8-4.8 2.6-7 4-4.7 3.1-46.6 24-48 24-0.6 0-3.2 1.1-5.8 2.4-2.6 1.4-6.5 3-8.5 3.7-2 0.6-4.1 1.5-4.7 1.9-0.5 0.4-2.8 1.3-5 2-2.2 0.7-4.4 1.6-5 2-1.9 1.4-35 12-37.5 12-1.4 0-3.8 0.9-5.5 2-2.5 1.7-4.7 2-14.3 2-13.3 0-16.3-1-22-7.5-6-6.9-7.2-12.2-7.2-33.4 0-14.8-0.3-18.3-1.4-18.7-3.3-1.3-5.4 1.6-9 12.3-3.4 10.1-3.6 11.6-3.6 23.4 0 8.7 0.5 14 1.5 17 6.6 19.2 21.2 28.9 43.3 28.9 5 0 11.3-0.5 13.9-1.1 8.8-1.9 30.7-9.1 36.9-12 3.4-1.6 6.6-2.9 7-2.9 1.3 0 43.4-21.1 47.9-24 2.2-1.4 5.4-3.2 7-4 1.7-0.8 4.9-2.7 7.2-4.2 2.3-1.5 4.4-2.8 4.7-2.8 2.5 0 62.8-42.5 75.7-53.4 2-1.7 6.5-5.4 10-8.1 3.4-2.8 8.9-7.3 12-10 3.2-2.8 9.2-7.9 13.5-11.5 11.1-9.3 35.4-33.2 35.4-34.7 0-2-1.2-1.6-5.5 1.9z"/>
		<path id="Layer" class="s0" d="m750.5 574.4c-3.8 1.3-18.5 6.4-32.5 11.4-14 4.9-39.4 13.8-56.5 19.8-17 5.9-31.7 11.6-32.7 12.6-1.2 1.2-1.8 3.3-1.8 6 0 7.1-3 38.6-4.6 49.3-2.9 18.5-7.4 37-15.3 62.5-4.4 14-7.5 25.7-7 25.8 1.4 0.5 32.7-18.5 44.6-27 45.4-32.7 79.9-74.7 100.4-122.3 4.7-10.9 13.9-37.1 13.9-39.5 0-1.3-0.4-1.3-8.5 1.4z"/>
		<path id="Layer" class="s0" d="m344.5 575c-1.1 0.6-22 8-46.5 16.6-82.3 28.8-98.2 34.4-100.1 35.5-1 0.5-1.9 1.9-1.9 3.1 0 4.6 17.2 36 28.2 51.3 7.2 10 9.8 12.5 12.8 12.5 9.3 0 65.4-24.2 96-41.5 15.5-8.7 41.2-24.9 41.7-26.3 0.3-0.7-3.3-9.1-7.9-18.5-4.7-9.5-10-20.9-11.9-25.5-2.9-7.3-3.6-8.2-5.8-8.1-1.5 0-3.5 0.4-4.6 0.9z"/>
		<path id="Layer" class="s0" d="m522.5 654.5c-41.2 14.6-75.8 26.8-76.8 27.3-1.6 0.7-0.9 1.9 5.5 9.2 15.5 17.7 46.2 44 69.5 59.5 14 9.4 36.9 22.3 40.8 23.1 4.1 0.8 5.2-0.7 10.8-14.1 12.5-30.2 20.5-60 25.6-95.5 3-20.3 3.7-34 2-35.1-0.8-0.5-1.6-0.9-1.9-0.8-0.3 0-34.2 11.9-75.5 26.4z"/>
		<path id="Layer" class="s0" d="m379 664.5c-6.8 4.6-12.6 8.8-12.8 9.4-0.5 1.4 4.3 1.4 16.8 0.1 12.2-1.3 21-3 21-4.1 0-0.5-1.9-3.8-4.2-7.4-3-4.5-4.9-6.4-6.3-6.4-1.1 0-7.6 3.8-14.5 8.4z"/>
		<path id="Layer" class="s0" d="m407.9 694.6c-10.7 3.5-35.5 10.1-85.9 22.9-24.5 6.2-46.1 11.9-48 12.7l-3.5 1.5 8.5 5.4c47.9 30.9 98.8 48.9 153.2 54 24.3 2.2 73.5 0.2 93.8-4l3.5-0.7-11-7.4c-43.7-29.3-64.6-46.6-88.6-73.6-6-6.7-11.7-12.4-12.7-12.6-1.1-0.3-5.2 0.5-9.3 1.8z"/>
	</g>
</svg>