<?xml version="1.0" standalone="no"?>
<!DOCTYPE svg PUBLIC "-//W3C//DTD SVG 20010904//EN"
 "http://www.w3.org/TR/2001/REC-SVG-20010904/DTD/svg10.dtd">
<svg version="1.0" xmlns="http://www.w3.org/2000/svg"
 width="977.000000pt" height="1061.000000pt" viewBox="0 0 977.000000 1061.000000"
 preserveAspectRatio="xMidYMid meet">

<g transform="translate(0.000000,1061.000000) scale(0.100000,-0.100000)"
 stroke="none" stroke-opacity="0" >
 <!--g=#00693e, y=#ffd200-->
<path stroke="none" stroke-opacity="0" fill="#ffd200" d="M4577 10563 c-3 -5 -17 -57 -32 -118 -15 -60 -35 -139 -45 -175 -10
-36 -23 -85 -29 -110 -6 -25 -34 -130 -61 -235 -28 -104 -59 -228 -71 -275
-11 -47 -29 -116 -39 -155 -10 -38 -23 -90 -29 -115 -6 -25 -43 -168 -81 -319
-39 -151 -70 -283 -70 -293 0 -10 9 -27 20 -38 19 -19 33 -20 450 -20 417 0
431 1 450 20 11 11 20 33 20 49 0 15 -23 115 -50 222 -28 107 -81 316 -120
464 -38 149 -74 288 -80 310 -26 105 -56 222 -90 350 -20 77 -47 178 -59 225
-12 47 -26 99 -31 116 -6 17 -10 42 -10 55 0 34 -30 63 -43 42z"/>
<path stroke="none" stroke-opacity="0" fill="#ffd200" d="M6597 9172 c-361 -361 -657 -663 -657 -669 0 -15 49 -52 115 -88 28
-15 57 -33 65 -39 8 -7 29 -18 45 -26 17 -8 49 -27 72 -42 23 -15 44 -28 48
-28 4 0 25 -13 48 -28 23 -15 56 -34 72 -42 17 -8 49 -27 72 -42 23 -15 44
-28 48 -28 4 0 26 -13 50 -30 24 -16 46 -30 50 -30 4 0 26 -13 50 -30 52 -36
82 -38 94 -7 10 26 59 189 91 302 12 44 35 121 51 170 15 50 35 120 44 158 9
37 23 86 31 110 9 23 26 83 39 133 26 102 46 173 81 284 13 41 35 118 49 170
13 52 34 127 45 165 11 39 29 102 40 141 10 39 24 83 30 98 13 36 13 56 -3 56
-7 0 -308 -296 -670 -658z"/>
<path  stroke="none" stroke-opacity="0" fill="#ffd200" d="M1955 9589 c-10 -15 1 -69 34 -174 16 -49 39 -126 51 -170 12 -44 35
-120 50 -170 15 -49 38 -126 50 -170 21 -76 38 -131 107 -360 17 -55 36 -122
43 -150 7 -27 25 -90 40 -140 15 -49 38 -126 50 -170 46 -165 73 -241 90 -258
17 -18 19 -18 59 7 22 14 43 26 46 26 4 0 26 14 50 30 24 17 46 30 50 30 4 0
26 14 50 30 24 17 46 30 50 30 4 0 26 14 50 30 24 17 46 30 50 30 4 0 26 14
50 30 24 17 46 30 50 30 4 0 25 13 48 28 23 15 56 34 72 42 17 8 49 27 71 43
23 15 46 27 51 27 13 0 63 49 63 63 0 19 -1283 1297 -1302 1297 -9 0 -20 -5
-23 -11z"/>
<path  stroke="none" stroke-opacity="0" fill="#00693e" d="M4435 8233 c-93 -5 -269 -25 -288 -32 -15 -6 -8 -14 42 -45 279 -172
597 -458 926 -831 201 -228 208 -235 239 -235 15 0 140 40 279 89 138 50 376
133 527 186 307 107 493 174 498 180 6 6 -256 177 -378 247 -438 250 -875 393
-1334 437 -99 10 -382 12 -511 4z"/>
<path stroke="none" stroke-opacity="0" fill="#00693e" d="M3813 8062 c-34 -21 -126 -297 -171 -512 -56 -267 -142 -908 -142
-1064 0 -51 2 -57 18 -51 9 4 292 103 627 221 336 118 682 240 770 271 88 31
164 59 168 63 20 17 -563 583 -807 782 -109 89 -324 237 -403 277 -48 24 -44
23 -60 13z"/>
<path  stroke="none" stroke-opacity="0" fill="#00693e" d="M3405 7921 c-312 -147 -721 -527 -1065 -986 -238 -318 -410 -641
-475 -890 -21 -83 -34 -195 -21 -195 2 0 120 41 262 91 143 50 453 158 689
240 237 83 436 156 444 164 11 11 16 66 22 232 20 531 86 970 194 1282 36 107
38 104 -50 62z"/>
<path  stroke="none" stroke-opacity="0" fill="#ffd200" d="M212 7838 c-19 -19 -15 -28 36 -83 26 -29 74 -85 107 -125 75 -90
162 -192 240 -280 70 -80 153 -177 345 -405 36 -42 90 -105 120 -140 30 -34
84 -97 120 -140 105 -126 212 -235 231 -235 10 0 47 44 95 113 43 61 115 166
161 232 46 66 104 150 131 186 154 216 155 218 118 252 -14 13 -45 29 -68 36
-24 7 -47 17 -53 21 -5 4 -41 18 -80 30 -38 12 -74 26 -80 30 -5 4 -41 18 -80
30 -38 12 -74 26 -80 30 -5 4 -41 18 -80 30 -38 12 -74 26 -80 30 -5 4 -41 18
-80 30 -38 12 -74 26 -80 30 -5 4 -41 18 -80 30 -38 12 -74 26 -80 30 -5 4
-41 18 -80 30 -38 12 -74 26 -80 30 -5 4 -41 18 -80 30 -38 12 -74 26 -80 30
-5 4 -41 18 -80 30 -38 12 -74 26 -80 30 -5 4 -41 18 -80 30 -38 12 -74 26
-80 30 -13 9 -105 40 -120 40 -6 0 -16 -5 -23 -12z"/>
<path  stroke="none" stroke-opacity="0" fill="#ffd200" d="M7500 7767 c-91 -45 -180 -93 -197 -105 -17 -12 -34 -22 -37 -22 -4
0 -50 -32 -104 -72 -60 -44 -214 -186 -404 -372 -169 -166 -395 -384 -503
-486 -108 -102 -348 -334 -533 -517 -289 -285 -342 -332 -374 -338 -39 -7
-139 -2 -273 15 -201 25 -269 31 -392 36 -110 5 -138 3 -167 -11 -44 -21 -116
-98 -116 -124 0 -36 62 -92 212 -192 81 -55 150 -99 153 -99 4 0 25 -13 48
-28 23 -15 56 -34 72 -42 17 -8 48 -26 70 -41 22 -14 48 -29 58 -32 29 -11 32
-38 8 -80 -14 -24 -21 -47 -17 -62 7 -28 70 -85 94 -85 25 0 29 3 636 455 154
116 308 229 340 252 61 43 92 47 82 9 -3 -11 -13 -52 -22 -91 -8 -38 -24 -100
-35 -136 -36 -121 -18 -189 49 -189 31 0 56 23 119 110 22 30 71 98 110 150
73 100 393 576 393 585 0 3 23 39 50 80 28 41 50 77 50 80 0 13 106 164 152
215 50 56 211 234 373 410 50 54 140 153 200 220 61 67 151 165 201 218 120
129 156 183 162 244 4 45 2 50 -36 88 l-40 40 -108 0 -109 0 -165 -83z"/>
<path  stroke="none" stroke-opacity="0" fill="#ffd200" d="M9460 7340 c-100 -32 -423 -134 -635 -200 -82 -26 -240 -75 -350
-110 -299 -94 -490 -154 -590 -185 -49 -15 -98 -35 -108 -43 -27 -24 -16 -59
43 -147 27 -41 50 -77 50 -80 0 -3 23 -39 50 -80 28 -41 50 -77 50 -80 0 -3
23 -39 50 -80 28 -41 50 -77 50 -80 0 -3 21 -38 48 -78 26 -40 54 -84 61 -99
8 -15 26 -42 41 -59 22 -27 29 -30 46 -21 21 12 295 291 649 662 127 132 318
332 426 443 194 200 229 242 212 257 -4 4 -46 -5 -93 -20z"/>
<path  stroke="none" stroke-opacity="0" fill="#00693e" d="M6605 7270 c-27 -10 -257 -91 -510 -179 -529 -186 -595 -210 -595
-220 0 -8 52 -95 167 -281 70 -112 95 -145 111 -145 13 0 82 56 183 150 349
322 724 676 727 685 5 15 -27 11 -83 -10z"/>
<path stroke="none" stroke-opacity="0" fill="#00693e" d="M5144 6750 c-59 -16 -350 -117 -1094 -380 -96 -34 -255 -89 -354
-123 -122 -42 -183 -68 -192 -82 -27 -42 28 -471 96 -740 45 -181 63 -225 87
-225 10 0 68 18 128 39 61 22 245 87 409 145 165 59 301 108 303 109 1 2 -28
26 -65 53 -98 71 -141 113 -163 155 -37 74 -24 115 67 209 81 84 139 112 233
112 86 -1 343 -27 499 -52 150 -24 166 -24 219 0 60 27 263 236 263 271 0 39
-263 481 -300 504 -33 20 -70 21 -136 5z"/>
<path stroke="none" stroke-opacity="0" fill="#00693e" d="M7189 6658 c-56 -62 -118 -136 -139 -163 -37 -50 -84 -134 -78 -140
8 -8 438 151 443 163 5 15 -95 235 -113 246 -6 4 -55 -43 -113 -106z"/>
<path stroke="none" stroke-opacity="0" fill="#00693e" d="M7081 6139 c-201 -71 -378 -140 -395 -153 -17 -13 -47 -50 -66 -82
-19 -33 -103 -171 -188 -307 -144 -232 -158 -251 -209 -283 -48 -32 -54 -38
-49 -62 5 -21 47 -270 92 -530 4 -26 9 -33 22 -30 9 3 310 107 667 232 466
163 655 234 669 249 17 21 18 38 13 262 -4 190 -10 272 -31 396 -28 177 -81
406 -97 426 -6 7 -23 13 -38 12 -14 0 -190 -59 -390 -130z"/>
<path stroke="none" stroke-opacity="0" fill="#00693e" d="M2525 5836 c-379 -133 -700 -248 -712 -254 -38 -21 -44 -47 -50 -210
-7 -183 7 -369 43 -559 32 -178 52 -237 81 -241 13 -2 274 85 580 193 858 302
916 323 936 344 19 19 19 22 -27 207 -53 220 -89 433 -107 627 -11 129 -13
137 -33 136 -12 0 -331 -110 -711 -243z"/>
<path stroke="none" stroke-opacity="0" fill="#00693e" d="M5735 5431 c-66 -48 -225 -165 -353 -259 l-233 -172 -54 0 -54 0
-123 -113 c-68 -62 -229 -205 -358 -316 -354 -307 -377 -328 -384 -357 -5 -19
3 -47 29 -103 44 -92 60 -111 95 -111 22 0 1143 390 1581 550 88 32 112 49
121 86 13 52 -23 334 -78 604 -16 82 -62 272 -67 276 -1 2 -56 -37 -122 -85z"/>
<path stroke="none" stroke-opacity="0" fill="#00693e" d="M4675 5290 c-44 -15 -262 -91 -484 -169 -222 -78 -410 -146 -418
-153 -9 -7 -13 -22 -9 -37 8 -40 181 -395 200 -410 25 -21 43 -10 294 182 125
96 309 235 409 310 100 75 189 147 197 159 9 12 16 41 16 64 0 34 -5 47 -26
63 -36 28 -81 26 -179 -9z"/>
<path stroke="none" stroke-opacity="0" fill="#ffd200" d="M4745 4938 c-21 -18 -67 -53 -101 -78 -34 -25 -152 -112 -262 -195
-110 -82 -247 -184 -303 -226 -110 -81 -465 -319 -474 -319 -4 0 -25 -13 -48
-28 -23 -15 -55 -34 -72 -42 -16 -8 -48 -26 -70 -40 -47 -31 -466 -240 -480
-240 -6 0 -32 -11 -58 -24 -26 -14 -65 -30 -85 -37 -20 -6 -41 -15 -47 -19 -5
-4 -28 -13 -50 -20 -22 -7 -44 -16 -50 -20 -19 -14 -350 -120 -375 -120 -14 0
-38 -9 -55 -20 -25 -17 -47 -20 -143 -20 -133 0 -163 10 -220 75 -60 69 -72
122 -72 334 0 148 -3 183 -14 187 -33 13 -54 -16 -90 -123 -34 -101 -36 -116
-36 -234 0 -87 5 -140 15 -170 66 -192 212 -289 433 -289 50 0 113 5 139 11
88 19 307 91 369 120 34 16 66 29 70 29 13 0 434 211 479 240 22 14 54 32 70
40 17 8 49 27 72 42 23 15 44 28 47 28 25 0 628 425 757 534 20 17 65 54 100
81 34 28 89 73 120 100 32 28 92 79 135 115 111 93 354 332 354 347 0 20 -12
16 -55 -19z"/>
<path stroke="none" stroke-opacity="0" fill="#00693e" d="M7505 4866 c-38 -13 -185 -64 -325 -114 -140 -49 -394 -138 -565
-198 -170 -59 -317 -116 -327 -126 -12 -12 -18 -33 -18 -60 0 -71 -30 -386
-46 -493 -29 -185 -74 -370 -153 -625 -44 -140 -75 -257 -70 -258 14 -5 327
185 446 270 454 327 799 747 1004 1223 47 109 139 371 139 395 0 13 -4 13 -85
-14z"/>
<path stroke="none" stroke-opacity="0" fill="#00693e" d="M3445 4860 c-11 -6 -220 -80 -465 -166 -823 -288 -982 -344 -1001
-355 -10 -5 -19 -19 -19 -31 0 -46 172 -360 282 -513 72 -100 98 -125 128
-125 93 0 654 242 960 415 155 87 412 249 417 263 3 7 -33 91 -79 185 -47 95
-100 209 -119 255 -29 73 -36 82 -58 81 -15 0 -35 -4 -46 -9z"/>
<path stroke="none" stroke-opacity="0" fill="#00693e" d="M5225 4065 c-412 -146 -758 -268 -768 -273 -16 -7 -9 -19 55 -92 155
-177 462 -440 695 -595 140 -94 369 -223 408 -231 41 -8 52 7 108 141 125 302
205 600 256 955 30 203 37 340 20 351 -8 5 -16 9 -19 8 -3 0 -342 -119 -755
-264z"/>
<path stroke="none" stroke-opacity="0" fill="#00693e" d="M3790 3965 c-68 -46 -126 -88 -128 -94 -5 -14 43 -14 168 -1 122 13
210 30 210 41 0 5 -19 38 -42 74 -30 45 -49 64 -63 64 -11 0 -76 -38 -145 -84z"/>
<path stroke="none" stroke-opacity="0" fill="#00693e" d="M4079 3664 c-107 -35 -355 -101 -859 -229 -245 -62 -461 -119 -480
-127 l-35 -15 85 -54 c479 -309 988 -489 1532 -540 243 -22 735 -2 938 40 l35
7 -110 74 c-437 293 -646 466 -886 736 -60 67 -117 124 -127 126 -11 3 -52 -5
-93 -18z"/>
<path  stroke="none" stroke-opacity="0" fill="#00693e" d="M3695 2381 c-152 -69 -134 -266 27 -301 38 -8 322 -10 1008 -8 l955
3 38 24 c73 45 100 153 54 222 -12 19 -42 44 -67 57 l-44 22 -966 0 c-915 0
-967 -1 -1005 -19z"/>
<path stroke="none" stroke-opacity="0" fill="#00693e" d="M3707 1756 c-71 -26 -117 -86 -117 -151 0 -83 62 -141 167 -156 44
-7 391 -8 993 -4 l925 7 43 25 c87 50 109 145 50 217 -62 76 9 71 -1063 73
-801 2 -966 0 -998 -11z"/>
<path stroke="none" stroke-opacity="0" fill="#00693e" d="M3833 1120 c-67 -30 -83 -66 -83 -183 0 -119 22 -220 65 -307 106
-209 343 -378 610 -435 108 -23 428 -23 542 1 181 37 346 125 468 248 87 88
135 161 171 262 29 80 50 232 40 296 -13 87 -103 150 -190 134 -49 -9 -103
-65 -112 -113 -52 -307 -114 -394 -334 -471 -128 -45 -209 -56 -357 -49 -272
12 -451 94 -531 244 -37 71 -50 116 -62 215 -12 99 -30 135 -83 159 -53 24
-91 24 -144 -1z"/>
</g>
</svg>
